<svg xmlns="http://www.w3.org/2000/svg" viewBox="0 0 1033.81 302.87"><defs><style>.cls-1{fill:#00338c;}.cls-2{fill:#fcbd11;}</style></defs><g id="Layer_2" data-name="Layer 2"><g id="Layer_1-2" data-name="Layer 1"><path class="cls-1" d="M392.9,114.23a33.64,33.64,0,0,1-12.27-2.38q-17.89-9.33-17.89-33.74v-.8a36,36,0,0,1,4.34-17.73q9.39-14.82,24.54-14.82h3.32q8.12,0,15.46,6.35V45H436l-.06,67.49H410.28v-4.63H410A25.36,25.36,0,0,1,392.9,114.23ZM389.83,80a27.22,27.22,0,0,0,1.28,9.39q2.29,5.57,9.2,5.56a13.62,13.62,0,0,1,2.55-.26Q411.05,93,411,79.43q-.26-10-1.79-11.38,0-3.37-8.18-4.24h-1.53a17.2,17.2,0,0,0-4.6.8q-5.12,3.51-5.11,13.23Z"/><path class="cls-1" d="M487.43,45h19l10.22,33.81L525.38,45h21.86L527.3,112.51H507.36L496.69,82.74,486,112.51H466.28L446.59,45H469l8.75,33.35Z"/><path class="cls-1" d="M587.71,73.61v38.9H562.15V73.61H555.7V55h6.45q.51-23.24,16.42-31.23a53.15,53.15,0,0,1,17.89-3.18h10.36v18.2q-14.13.72-16.3,3.9a14.81,14.81,0,0,0-2.81,8.6V55h15.91V73.61Z"/><path class="cls-1" d="M647.35,73.61v38.9H621.79V73.61h-6.45V55h6.45q.51-23.24,16.42-31.23a53.16,53.16,0,0,1,17.9-3.18h10.35v18.2q-14.13.72-16.3,3.9a14.81,14.81,0,0,0-2.81,8.6V55h15.91V73.61Z"/><path class="cls-1" d="M679.9,38.41V19.88h25.56V38.41ZM705.46,45v67.49H679.9V45Z"/><path class="cls-1" d="M755.45,41.71h3q18.46,0,29.26,15.42-.76,1-17.38,12.57-5.24-7.28-13.55-7.28-9.76,0-13.8,11.52l-.25,3.11v2.38q0,9.72,10,14.16a13.53,13.53,0,0,0,3.26.46h2.17q6.33,0,13-7,16,11,17.06,12-8.24,10.78-19.49,14.36a61.16,61.16,0,0,1-13,1.59Q734,115,721.9,95.38a37.29,37.29,0,0,1-4.09-16.48V77.84q0-17.86,16-29.57A39.25,39.25,0,0,1,755.45,41.71Z"/><path class="cls-1" d="M825,114.23a33.64,33.64,0,0,1-12.27-2.38q-17.9-9.33-17.89-33.74v-.8a36.15,36.15,0,0,1,4.34-17.73q9.41-14.82,24.54-14.82H827q8.12,0,15.47,6.35V45h25.56L868,112.51H842.38v-4.63h-.26A25.34,25.34,0,0,1,825,114.23ZM821.93,80a27.47,27.47,0,0,0,1.28,9.39q2.29,5.57,9.2,5.56a13.81,13.81,0,0,1,2.56-.26q8.17-1.65,8.18-15.22-.25-10-1.79-11.38,0-3.37-8.18-4.24h-1.54a17.2,17.2,0,0,0-4.6.8q-5.12,3.51-5.11,13.23Z"/><path class="cls-1" d="M918.31,41.71h3q18.46,0,29.26,15.42-.76,1-17.38,12.57-5.24-7.28-13.54-7.28-9.78,0-13.81,11.52l-.25,3.11v2.38q0,9.72,10,14.16a13.6,13.6,0,0,0,3.26.46h2.17q6.33,0,13-7,16,11,17.07,12-8.25,10.78-19.49,14.36a61.25,61.25,0,0,1-13,1.59q-21.72,0-33.8-19.65a37.15,37.15,0,0,1-4.09-16.48V77.84q0-17.86,16-29.57A39.3,39.3,0,0,1,918.31,41.71Z"/><path class="cls-1" d="M983.77,111.39,957.13,45H985.5l10,34.41L1006,45h27.86l-19.69,56q-8.55,24.54-28,32.82A57.09,57.09,0,0,1,973.23,137h-6.52V118.8q10.6-.73,13.93-3.91A28.63,28.63,0,0,0,983.77,111.39Z"/><path d="M405.34,237.81a41.86,41.86,0,0,1-18.4-4A31.78,31.78,0,0,1,373.63,222q-4.92-7.75-4.92-18.72t4.84-18.64a32.73,32.73,0,0,1,13.15-12.1,42.41,42.41,0,0,1,24.45-3.87,34.81,34.81,0,0,1,5.32,1.21h35.18V184.4A46.59,46.59,0,0,1,437,182a95.23,95.23,0,0,1-12.82-5.16l-.49-.81a38.46,38.46,0,0,1,9.52,7,30,30,0,0,1,6.22,9.2,28.6,28.6,0,0,1,2.17,11.37q0,10.65-4.76,18.4a30.8,30.8,0,0,1-13.07,11.78A41.73,41.73,0,0,1,405.34,237.81ZM430,283v-3.71q0-8.22-4.51-11.78T412.28,264H393.4a45.61,45.61,0,0,1-10.17-1,20.39,20.39,0,0,1-6.94-2.82,11.48,11.48,0,0,1-4-4.52,13.18,13.18,0,0,1-1.29-5.89q0-6.28,3.87-9.52a19.48,19.48,0,0,1,9.84-4.11,43.37,43.37,0,0,1,12.1-.08l8.56,1.77a72.56,72.56,0,0,0-14,1.78q-4.85,1.29-4.84,5.48a4.6,4.6,0,0,0,1.93,3.88,9.06,9.06,0,0,0,5.49,1.45h19.69a52.72,52.72,0,0,1,16.37,2.34,22.12,22.12,0,0,1,11.3,7.9q4.11,5.58,4.11,15.25V283Zm-24.68-58.25a22.37,22.37,0,0,0,10.57-2.5,19.55,19.55,0,0,0,7.66-7.26,21.71,21.71,0,0,0,2.9-11.54,23.5,23.5,0,0,0-2.82-11.86,18.54,18.54,0,0,0-7.66-7.42,22.84,22.84,0,0,0-10.65-2.5,23.28,23.28,0,0,0-10.73,2.5,19,19,0,0,0-7.83,7.34,22.81,22.81,0,0,0-2.91,11.94A21.71,21.71,0,0,0,386.78,215a19.39,19.39,0,0,0,7.75,7.26A23.14,23.14,0,0,0,405.34,224.74Z"/><path d="M468,137.6h15.49V250.4H468Z"/><path d="M544.43,252.17a47.08,47.08,0,0,1-21.62-5,38.63,38.63,0,0,1-15.65-14.36q-5.82-9.36-5.81-22.43,0-13.23,5.81-22.67a38.41,38.41,0,0,1,15.65-14.44,47,47,0,0,1,21.62-5,46,46,0,0,1,21.46,5,38.69,38.69,0,0,1,15.49,14.44q5.82,9.43,5.81,22.67,0,13.06-5.81,22.43a38.91,38.91,0,0,1-15.49,14.36A46.1,46.1,0,0,1,544.43,252.17Zm0-13.39a28.16,28.16,0,0,0,13.47-3.31,25.34,25.34,0,0,0,10-9.68,29.59,29.59,0,0,0,3.79-15.41q0-9.19-3.79-15.65a25.86,25.86,0,0,0-10-9.85,27.65,27.65,0,0,0-13.47-3.38,28.72,28.72,0,0,0-13.55,3.3,25.63,25.63,0,0,0-10.17,9.77q-3.87,6.45-3.87,15.81a29.59,29.59,0,0,0,3.79,15.41,25.22,25.22,0,0,0,10.09,9.68A28.93,28.93,0,0,0,544.43,238.78Z"/><path d="M621.4,137.6v95.21c0,2.48-.14,5.43-.4,8.87s-.51,6.35-.73,8.72h-14.2V137.6ZM652.06,252q-9.52,0-15.73-3.95a29,29,0,0,1-9.85-10.41,49.61,49.61,0,0,1-5.24-13.72,63,63,0,0,1-1.61-13.71,81.68,81.68,0,0,1,1.53-16.3,41,41,0,0,1,5.08-13.39,24.22,24.22,0,0,1,9.84-9q6.3-3.23,16-3.23a35.1,35.1,0,0,1,19.28,5.41,37.41,37.41,0,0,1,13.31,14.84,46.91,46.91,0,0,1,4.85,21.71,45.56,45.56,0,0,1-5,21.7A38.07,38.07,0,0,1,671,246.69,34.9,34.9,0,0,1,652.06,252Zm-4.36-13.39A25.46,25.46,0,0,0,661.34,235a25.14,25.14,0,0,0,9.2-10,31.66,31.66,0,0,0,3.3-14.76q0-12.42-6.85-20.5t-19.29-8.06a27.16,27.16,0,0,0-14.28,3.55,22.72,22.72,0,0,0-8.95,10,34.57,34.57,0,0,0-3.07,15,33.79,33.79,0,0,0,3,14.36,23.84,23.84,0,0,0,8.88,10.25Q639.16,238.63,647.7,238.62Z"/><path d="M738.71,252a35,35,0,0,1-18.88-5.32,37.88,37.88,0,0,1-13.55-14.77,45.56,45.56,0,0,1-5-21.7,45.08,45.08,0,0,1,5.09-21.71,38.23,38.23,0,0,1,14-14.84,37.41,37.41,0,0,1,19.84-5.41q12.11,0,18.8,5.65a29.72,29.72,0,0,1,9.36,15.17A78.2,78.2,0,0,1,771,210.22a63.64,63.64,0,0,1-1.61,13.71,51.72,51.72,0,0,1-5.16,13.72,28.18,28.18,0,0,1-9.85,10.41Q748.08,252,738.71,252Zm4.36-13.39q8.55,0,14.44-3.79a23.26,23.26,0,0,0,8.79-10.25,34.54,34.54,0,0,0,2.91-14.36,35.46,35.46,0,0,0-3-15,22.32,22.32,0,0,0-8.87-10,27.16,27.16,0,0,0-14.28-3.55q-12.59,0-19.45,8.06t-6.85,20.5A31.09,31.09,0,0,0,720.15,225a25,25,0,0,0,22.92,13.64Zm26.14-68.74H784.7V250.4H770.5q-.64-6-1-10.17c-.22-2.79-.32-5.27-.32-7.42Z"/><path d="M806.48,137.6H822V250.4h-15.5Z"/><path class="cls-2" d="M175.61,144.58s-3.43,3.62-3.35,3.57c28.63.89,85.13,1.77,125.8,2.65a8,8,0,0,0,2.92-.43,6.91,6.91,0,0,0,4.56-6.29,6.27,6.27,0,0,0-6.41-5.94c-40.87.91-98.23,1.8-126.86,2.7Z"/><path class="cls-1" d="M226.15,24.35a6.14,6.14,0,0,0-2.41-8.68l-.12-.06a6.11,6.11,0,0,0-8.17,2.57l-33.78,63a75.8,75.8,0,0,1,7.17,3.39Z"/><path class="cls-1" d="M190.94,9.8a6.14,6.14,0,0,0-4.58-7.75l-.13,0A6.11,6.11,0,0,0,179,6.62C173.55,29.87,168.13,53,162.7,76.14a74.44,74.44,0,0,1,7.8,1.43C177.36,54.84,184.14,32.33,190.94,9.8Z"/><path class="cls-1" d="M153.16,4.9C151-4.27,140.7,1.62,140.81,5c.75,23.78,1.49,47.39,2.23,71.08a76.86,76.86,0,0,1,7.92-.59C151.7,51.83,152.43,28.38,153.16,4.9Z"/><path class="cls-1" d="M115.39,9.88a6.14,6.14,0,0,0-7.84-4.42l-.13,0a6.11,6.11,0,0,0-4,7.59c6.87,22.76,13.69,45.36,20.54,68a74,74,0,0,1,7.51-2.61C126.1,55.49,120.75,32.7,115.39,9.88Z"/><path class="cls-1" d="M80.91,25.83l-.7-1.31a6.13,6.13,0,0,0-8.73-2.24l-.11.07a6.11,6.11,0,0,0-1.85,8.36l37.34,60.21a76.26,76.26,0,0,1,6.58-4.49Z"/><path class="cls-1" d="M50,47.76a6.13,6.13,0,0,0-9,.09l-.09.1a6.1,6.1,0,0,0,.37,8.55l51.49,48.35a73,73,0,0,1,5.22-6C81.92,81.69,66,64.73,50,47.76Z"/><path class="cls-1" d="M26.84,78a6.13,6.13,0,0,0-8.67,2.42l-.06.11a6.11,6.11,0,0,0,2.57,8.17L82.73,122a74.4,74.4,0,0,1,3.5-7.18Z"/><path class="cls-1" d="M12.3,113.2a6.14,6.14,0,0,0-7.75,4.58l0,.13a6.11,6.11,0,0,0,4.6,7.23l68.39,16A75.86,75.86,0,0,1,79,133.31Z"/><path class="cls-1" d="M8.84,151a10.37,10.37,0,0,0-3.67.48c-7.64,2.57-6.76,11.82,2.3,11.82,23.42,0,46.66-1.27,70-2.16a78.58,78.58,0,0,1-.6-8Z"/><path class="cls-1" d="M12.38,188.75A6.14,6.14,0,0,0,8,196.59l0,.13a6.09,6.09,0,0,0,7.59,4l67-20.22a75.38,75.38,0,0,1-2.67-7.57Z"/><path class="cls-1" d="M27,223.93a6.13,6.13,0,0,0-2.24,8.73l.07.11a6.11,6.11,0,0,0,8.36,1.85L92.6,197.79a79,79,0,0,1-4.57-6.6Z"/><path class="cls-1" d="M50.25,254.12a6.14,6.14,0,0,0,.1,9l.09.09a6.11,6.11,0,0,0,8.56-.37l47.82-50.92a78.25,78.25,0,0,1-6.13-5.2Z"/><path class="cls-1" d="M80.49,277.3A6.13,6.13,0,0,0,82.9,286L83,286a6.11,6.11,0,0,0,8.17-2.57l33-61.62a76.49,76.49,0,0,1-7.28-3.4C104.73,238.17,92.61,257.72,80.49,277.3Z"/><path class="cls-1" d="M115.7,291.84a6.14,6.14,0,0,0,4.58,7.75l.13,0a6.11,6.11,0,0,0,7.23-4.6l16-68.18a79.18,79.18,0,0,1-7.91-1.38C129,247.72,122.36,269.77,115.7,291.84Z"/><path class="cls-1" d="M153.75,288.24c-.17,5.53-2.71,14.58,6.11,14.63,4.19,0,6.31-2.78,6-6.14-2.32-23.35-1.89-46.72-2.29-70.1a76.45,76.45,0,0,1-7.91.7C155,247.75,154.38,268,153.75,288.24Z"/><path class="cls-1" d="M191.25,291.76a6.13,6.13,0,0,0,7.84,4.42l.13,0a6.1,6.1,0,0,0,4-7.59c-6.8-22.53-13.56-44.91-20.33-67.35a72.78,72.78,0,0,1-7.52,2.79C180.67,246.72,186,269.23,191.25,291.76Z"/><path class="cls-1" d="M226.43,277.12a6.13,6.13,0,0,0,8.73,2.24l.1-.07a6.11,6.11,0,0,0,1.86-8.36c-12.44-20.05-24.8-40-37.19-60a73.22,73.22,0,0,1-6.52,4.64Z"/><path class="cls-1" d="M256.62,253.89a6.14,6.14,0,0,0,9-.1l.09-.09a6.12,6.12,0,0,0-.37-8.56l-51.57-48.43a79.19,79.19,0,0,1-5.1,6.15Z"/><path class="cls-1" d="M279.79,223.65a6.14,6.14,0,0,0,8.68-2.41l.06-.12A6.11,6.11,0,0,0,286,213L223.4,179.4a75.64,75.64,0,0,1-3.33,7.25Z"/><path class="cls-1" d="M297.52,176.5l-69.31-16.25a77.91,77.91,0,0,1-1.33,7.85l67.46,20.34a6.14,6.14,0,0,0,7.75-4.58l0-.13A6.11,6.11,0,0,0,297.52,176.5Z"/><path class="cls-2" d="M181.67,81.18l-2.16,4-2.2,4.1,4.91-1s1.42,4.77,1.42,4.68q1.41-2.27,2.8-4.53l2.4-3.87A75.8,75.8,0,0,0,181.67,81.18Z"/><path class="cls-2" d="M161.66,80.58c-.36,1.54-.72,3.07-1.09,4.61l4.48-2.25s2.6,4.24,2.58,4.15l1.56-5.16c.44-1.45.87-2.9,1.31-4.36a74.44,74.44,0,0,0-7.8-1.43C162.35,77.62,162,79.1,161.66,80.58Z"/><path class="cls-2" d="M143.19,80.67l.15,4.88,3.74-3.33s3.62,3.42,3.57,3.34c.06-1.84.11-3.66.17-5.5l.14-4.54a76.86,76.86,0,0,0-7.92.59Z"/><path class="cls-2" d="M131.51,78.51A74,74,0,0,0,124,81.12l1.32,4.37,1.47,4.87,2.75-4.19s4.38,2.37,4.31,2.31c-.43-1.86-.87-3.7-1.3-5.55C132.2,81.46,131.86,80,131.51,78.51Z"/><path class="cls-2" d="M223.77,159.21,219,158.08l2.25,4.47s-4.24,2.61-4.15,2.58l5.47,1.65,4.36,1.32a77.91,77.91,0,0,0,1.33-7.85Z"/><path class="cls-2" d="M112,99.28l1.58-4.75s4.84,1.16,4.76,1.11l-2.79-5.2c-.72-1.34-1.44-2.67-2.15-4a76.26,76.26,0,0,0-6.58,4.49l2.4,3.88Z"/><path class="cls-2" d="M100.11,111.72l.29-5s5-.13,4.89-.16l-4.17-4.43L98,98.82a73,73,0,0,0-5.22,6L96.11,108Z"/><path class="cls-2" d="M91.81,126.83l-1-4.91s4.77-1.42,4.68-1.42l-5.38-3.33-3.86-2.39a74.4,74.4,0,0,0-3.5,7.18l4,2.16Z"/><path class="cls-2" d="M87.69,143.57l-2.25-4.48s4.24-2.6,4.15-2.58l-6.24-1.88L79,133.31a75.86,75.86,0,0,0-1.48,7.87l4.44,1Z"/><path class="cls-2" d="M88,160.8h0l-3.33-3.74h0s3.3-3.48,3.34-3.57h0l-6.67-.21-4.55-.14a78.58,78.58,0,0,0,.6,8L82,161Z"/><path class="cls-2" d="M88.67,174.6S91,170.22,91,170.29l-6.66,1.56-4.43,1a75.38,75.38,0,0,0,2.67,7.57l4.36-1.31,5.94-1.8Z"/><path class="cls-2" d="M97,190.52s1.15-4.84,1.11-4.76L92,189l-4,2.16a79,79,0,0,0,4.57,6.6l3.88-2.41,5.3-3.28Z"/><path class="cls-2" d="M109.06,198.85l-5,4.75-3.32,3.12a78.25,78.25,0,0,0,6.13,5.2c1-1.11,2.07-2.22,3.11-3.32l4.29-4.57-5-.29S109.09,198.76,109.06,198.85Z"/><path class="cls-2" d="M123,208.67l-3.65,5.89-2.4,3.88a76.49,76.49,0,0,0,7.28,3.4l2.16-4,2.94-5.47-4.91,1S123,208.58,123,208.67Z"/><path class="cls-2" d="M139,214.55l-2,6.55c-.44,1.45-.87,2.91-1.31,4.36a79.18,79.18,0,0,0,7.91,1.38c.35-1.48.69-3,1-4.45.47-2,.93-4,1.4-5.94l-4.48,2.25S139,214.46,139,214.55Z"/><path class="cls-2" d="M163.3,216.09l-3.74,3.33s-3.62-3.42-3.57-3.34l-.21,6.71c-.05,1.51-.09,3-.14,4.54a76.45,76.45,0,0,0,7.91-.7l-.09-4.57Q163.39,219.08,163.3,216.09Z"/><path class="cls-2" d="M179.85,211.28l-2.75,4.19s-4.38-2.37-4.31-2.31l1.5,6.4c.35,1.48.7,3,1,4.43a72.78,72.78,0,0,0,7.52-2.79c-.44-1.46-.89-2.92-1.33-4.38C181,215,180.41,213.13,179.85,211.28Z"/><path class="cls-2" d="M194.6,202.36,193,207.11s-4.84-1.15-4.76-1.11l3,5.59c.72,1.34,1.44,2.67,2.15,4a73.22,73.22,0,0,0,6.52-4.64l-2.4-3.88Z"/><path class="cls-2" d="M206.53,189.92l-.29,5s-5,.13-4.89.16c1.41,1.49,2.8,3,4.2,4.47l3.12,3.31a79.19,79.19,0,0,0,5.1-6.15l-3.34-3.13Z"/><path class="cls-2" d="M214.83,174.81l1,4.91s-4.77,1.42-4.68,1.42l5,3.12,3.87,2.39a75.64,75.64,0,0,0,3.33-7.25l-4-2.16Z"/></g></g></svg>